<svg xmlns="http://www.w3.org/2000/svg" width="512" height="512" viewBox="0 0 512 512" role="img" aria-labelledby="title description">
  <title id="title">Alarmed by Math: the morning proof</title>
  <desc id="description">A warm chalk clock on a deep green board. Golden hands and a dotted hypotenuse form a right triangle, uniting time and mathematics.</desc>
  <rect width="512" height="512" rx="112" fill="#0f2b24"/>
  <circle cx="256" cy="256" r="218" fill="#0a1f1a" stroke="#f5f0d9" stroke-width="8"/>
  <g stroke="#b3c2ad" stroke-width="8" stroke-linecap="round">
    <path d="M256 69v20" transform="rotate(30 256 256)"/>
    <path d="M256 69v20" transform="rotate(60 256 256)"/>
    <path d="M256 69v20" transform="rotate(120 256 256)"/>
    <path d="M256 69v20" transform="rotate(150 256 256)"/>
    <path d="M256 69v20" transform="rotate(210 256 256)"/>
    <path d="M256 69v20" transform="rotate(240 256 256)"/>
    <path d="M256 69v20" transform="rotate(300 256 256)"/>
    <path d="M256 69v20" transform="rotate(330 256 256)"/>
  </g>
  <path d="M256 66v38M446 256h-38M256 446v-38M66 256h38" fill="none" stroke="#f7cf63" stroke-width="8" stroke-linecap="round"/>
  <path d="M149 256L256 113M223 256v-33h33" fill="none" stroke="#b3c2ad" stroke-width="4" stroke-dasharray="11 9"/>
  <path d="M149 256h107V113" fill="none" stroke="#f7cf63" stroke-width="18" stroke-linecap="round" stroke-linejoin="round"/>
  <circle cx="256" cy="256" r="16" fill="#f7cf63"/>
</svg>
